<svg xmlns="http://www.w3.org/2000/svg" version="1.1" xmlns:xlink="http://www.w3.org/1999/xlink" width="512" height="512" x="0" y="0" viewBox="0 0 512.001 512.001" style="enable-background:new 0 0 512 512" xml:space="preserve" class=""><g><path d="M8.828 423.725h494.345a8.829 8.829 0 0 0 8.828-8.828V97.104a8.829 8.829 0 0 0-8.828-8.828H8.828A8.83 8.83 0 0 0 0 97.104v317.793a8.828 8.828 0 0 0 8.828 8.828z" style="" fill="#c8414b" data-original="#c8414b" class=""></path><path d="M0 158.901h512v194.21H0z" style="" fill="#ffd250" data-original="#ffd250" class=""></path><path d="m216.276 256.001 7.485-33.681c.69-3.102-1.671-6.044-4.849-6.044h-5.272c-3.177 0-5.537 2.942-4.849 6.044l7.485 33.681z" style="" fill="#c8414b" data-original="#c8414b" class=""></path><path d="M207.45 238.341h17.655v75.03H207.45z" style="" fill="#f5f5f5" data-original="#f5f5f5" class=""></path><path d="M203.03 229.521h26.483v8.828H203.03z" style="" fill="#fab446" data-original="#fab446" class=""></path><path d="M185.38 256.001h44.14v8.828h-44.14zM229.517 291.311l-26.483-8.827v-8.828l26.483 8.828zM83.862 256.001l7.485-33.681c.69-3.102-1.671-6.044-4.849-6.044h-5.272c-3.177 0-5.537 2.942-4.849 6.044l7.485 33.681z" style="" fill="#c8414b" data-original="#c8414b" class=""></path><path d="M114.759 229.518a8.829 8.829 0 0 0-8.828 8.828v57.379c0 10.725 10.01 30.897 44.138 30.897s44.138-20.171 44.138-30.897v-57.379a8.829 8.829 0 0 0-8.828-8.828h-70.62z" style="" fill="#f5f5f5" data-original="#f5f5f5" class=""></path><path d="M150.069 273.656h-44.138v-35.31a8.829 8.829 0 0 1 8.828-8.828h35.31v44.138zM150.069 273.656h44.138v22.069c0 12.189-9.88 22.069-22.069 22.069-12.189 0-22.069-9.88-22.069-22.069v-22.069z" style="" fill="#c8414b" data-original="#c8414b" class=""></path><path d="M105.931 273.656h44.138v22.069c0 12.189-9.88 22.069-22.069 22.069-12.189 0-22.069-9.88-22.069-22.069v-22.069z" style="" fill="#fab446" data-original="#fab446" class=""></path><path d="M141.241 313.281v-39.625h-8.828v43.693c3.284-.666 6.251-2.12 8.828-4.068zM123.586 317.349v-43.693h-8.828v39.625c2.578 1.948 5.545 3.402 8.828 4.068z" style="" fill="#c8414b" data-original="#c8414b" class=""></path><path d="M114.76 256.001h26.483v8.828H114.76z" style="" fill="#ffb441" data-original="#ffb441"></path><path d="M114.76 238.341h26.483v8.828H114.76z" style="" fill="#fab446" data-original="#fab446" class=""></path><path d="M119.17 243.591h17.655v15.992H119.17z" style="" fill="#fab446" data-original="#fab446" class=""></path><path d="M75.03 238.341h17.655v75.03H75.03z" style="" fill="#f5f5f5" data-original="#f5f5f5" class=""></path><path d="M70.62 308.971h26.483v8.828H70.62zM70.62 229.521h26.483v8.828H70.62z" style="" fill="#fab446" data-original="#fab446" class=""></path><path d="M66.21 317.791h35.31v8.828H66.21z" style="" fill="#5064aa" data-original="#5064aa" class=""></path><path d="M207.45 308.971h26.483v8.828H207.45z" style="" fill="#fab446" data-original="#fab446" class=""></path><path d="M198.62 317.791h35.31v8.828h-35.31z" style="" fill="#5064aa" data-original="#5064aa" class=""></path><path d="M123.59 220.691h52.966v8.828H123.59z" style="" fill="#fab446" data-original="#fab446" class=""></path><path d="M145.66 194.211h8.828v26.483h-8.828z" style="" fill="#ffb441" data-original="#ffb441"></path><path d="M141.241 207.449c-7.302 0-13.241-5.94-13.241-13.241 0-7.302 5.94-13.241 13.241-13.241 7.302 0 13.241 5.94 13.241 13.241.001 7.301-5.939 13.241-13.241 13.241zm0-17.655a4.417 4.417 0 0 0-4.414 4.414c0 2.435 1.978 4.414 4.414 4.414s4.414-1.978 4.414-4.414a4.417 4.417 0 0 0-4.414-4.414z" style="" fill="#f5f5f5" data-original="#f5f5f5" class=""></path><path d="M158.897 207.449c-7.302 0-13.241-5.94-13.241-13.241 0-7.302 5.94-13.241 13.241-13.241 7.302 0 13.241 5.94 13.241 13.241s-5.94 13.241-13.241 13.241zm0-17.655a4.417 4.417 0 0 0-4.414 4.414 4.417 4.417 0 0 0 4.414 4.414 4.417 4.417 0 0 0 4.414-4.414 4.418 4.418 0 0 0-4.414-4.414z" style="" fill="#f5f5f5" data-original="#f5f5f5" class=""></path><path d="M176.552 216.277c-7.302 0-13.241-5.94-13.241-13.241 0-7.302 5.94-13.241 13.241-13.241 7.302 0 13.241 5.94 13.241 13.241s-5.94 13.241-13.241 13.241zm0-17.655a4.417 4.417 0 0 0-4.414 4.414 4.417 4.417 0 0 0 4.414 4.414c2.435 0 4.414-1.978 4.414-4.414s-1.979-4.414-4.414-4.414zM123.586 216.277c-7.302 0-13.241-5.94-13.241-13.241 0-7.302 5.94-13.241 13.241-13.241 7.302 0 13.241 5.94 13.241 13.241.001 7.301-5.939 13.241-13.241 13.241zm0-17.655a4.417 4.417 0 0 0-4.414 4.414c0 2.435 1.978 4.414 4.414 4.414s4.414-1.979 4.414-4.415a4.416 4.416 0 0 0-4.414-4.413z" style="" fill="#f5f5f5" data-original="#f5f5f5" class=""></path><path d="M176.552 291.311v4.414c0 2.434-1.98 4.414-4.414 4.414s-4.414-1.98-4.414-4.414v-4.414h8.828m8.827-8.827h-26.483v13.241c0 7.302 5.94 13.241 13.241 13.241 7.302 0 13.241-5.94 13.241-13.241v-13.241h.001z" style="" fill="#fab446" data-original="#fab446" class=""></path><path d="M172.138 264.829a8.829 8.829 0 0 1-8.828-8.828v-8.828a8.829 8.829 0 0 1 17.656 0v8.828a8.829 8.829 0 0 1-8.828 8.828z" style="" fill="#ffa0d2" data-original="#ffa0d2"></path><circle cx="150.07" cy="273.651" r="13.241" style="" fill="#5064aa" data-original="#5064aa" class=""></circle><path d="M145.66 176.551h8.828v26.483h-8.828z" style="" fill="#fab446" data-original="#fab446" class=""></path><path d="m123.586 220.691-8.828-8.828 5.171-5.171a42.627 42.627 0 0 1 60.28 0l5.171 5.171-8.828 8.828h-52.966z" style="" fill="#c8414b" data-original="#c8414b" class=""></path><circle cx="150.07" cy="211.861" r="4.414" style="" fill="#ffd250" data-original="#ffd250" class=""></circle><circle cx="132.41" cy="211.861" r="4.414" style="" fill="#ffd250" data-original="#ffd250" class=""></circle><circle cx="167.72" cy="211.861" r="4.414" style="" fill="#ffd250" data-original="#ffd250" class=""></circle><path d="M70.62 256.001h44.14v8.828H70.62zM70.621 291.311l26.482-8.827v-8.828l-26.482 8.828z" style="" fill="#c8414b" data-original="#c8414b" class=""></path></g></svg>