<svg xmlns="http://www.w3.org/2000/svg" version="1.1" xmlns:xlink="http://www.w3.org/1999/xlink" width="512" height="512" x="0" y="0" viewBox="0 0 512.001 512.001" style="enable-background:new 0 0 512 512" xml:space="preserve" class=""><g><path d="M503.172 423.725H8.828A8.829 8.829 0 0 1 0 414.897V97.104a8.829 8.829 0 0 1 8.828-8.828h494.345a8.829 8.829 0 0 1 8.828 8.828v317.793a8.83 8.83 0 0 1-8.829 8.828z" style="" fill="#ff4b55" data-original="#ff4b55" class=""></path><path d="m297.951 277.962 67.433-49.478h-83.509L256 148.846l-25.875 79.638h-83.509l67.433 49.478-25.675 79.022 67.56-48.289.066.047.066-.047 67.56 48.289-25.675-79.022zm13.527-31.823-19.273 14.141-4.595-14.141h23.868zm-76.694 25.139 8.169-25.14h26.094l8.169 25.14L256 286.846l-21.216-15.568zM256 205.984l7.31 22.5h-14.622l7.312-22.5zm-55.478 40.155h23.868l-4.595 14.141-19.273-14.141zm21.215 65.293 7.302-22.472 11.911 8.739-19.213 13.733zm61.225-22.472 7.302 22.472-19.212-13.732 11.91-8.74z" style="" fill="#5a8250" data-original="#5a8250" class=""></path></g></svg>