<svg xmlns="http://www.w3.org/2000/svg" version="1.1" xmlns:xlink="http://www.w3.org/1999/xlink" width="512" height="512" x="0" y="0" viewBox="0 0 512.001 512.001" style="enable-background:new 0 0 512 512" xml:space="preserve" class=""><g><path d="M503.172 423.725H8.828A8.829 8.829 0 0 1 0 414.897V97.104a8.829 8.829 0 0 1 8.828-8.828h494.345a8.829 8.829 0 0 1 8.828 8.828v317.793a8.83 8.83 0 0 1-8.829 8.828z" style="" fill="#ff4b55" data-original="#ff4b55"></path><path d="M185.379 88.277H8.828A8.828 8.828 0 0 0 0 97.104v317.793a8.829 8.829 0 0 0 8.828 8.828H185.38V88.277h-.001z" style="" fill="#73af00" data-original="#73af00"></path><circle cx="185.45" cy="256.001" r="79.38" style="" fill="#ffe15a" data-original="#ffe15a"></circle><path d="M211.932 229.518v35.31c0 14.603-11.88 26.483-26.483 26.483s-26.483-11.88-26.483-26.483v-35.31h52.966m8.827-17.655h-70.621a8.829 8.829 0 0 0-8.828 8.828v44.138c0 24.376 19.762 44.138 44.138 44.138s44.138-19.762 44.138-44.138v-44.138a8.827 8.827 0 0 0-8.827-8.828z" style="" fill="#ff4b55" data-original="#ff4b55"></path><path d="M211.932 229.518v35.31c0 14.603-11.88 26.483-26.483 26.483s-26.483-11.88-26.483-26.483v-35.31h52.966" style="" fill="#f5f5f5" data-original="#f5f5f5"></path><circle cx="150.07" cy="220.691" r="4.414" style="" fill="#ffe15a" data-original="#ffe15a"></circle><circle cx="220.69" cy="220.691" r="4.414" style="" fill="#ffe15a" data-original="#ffe15a"></circle><circle cx="150.07" cy="256.001" r="4.414" style="" fill="#ffe15a" data-original="#ffe15a"></circle><circle cx="220.69" cy="256.001" r="4.414" style="" fill="#ffe15a" data-original="#ffe15a"></circle><circle cx="185.38" cy="220.691" r="4.414" style="" fill="#ffe15a" data-original="#ffe15a"></circle><circle cx="211.88" cy="288.551" r="4.414" style="" fill="#ffe15a" data-original="#ffe15a"></circle><circle cx="159.4" cy="288.551" r="4.414" style="" fill="#ffe15a" data-original="#ffe15a"></circle><path d="M191.149 253.763v7.602c0 3.144-2.558 5.702-5.702 5.702s-5.702-2.558-5.702-5.702v-7.602h11.404M191.149 235.741v7.602c0 3.144-2.558 5.702-5.702 5.702s-5.702-2.558-5.702-5.702v-7.602h11.404M191.149 271.97v7.602c0 3.144-2.558 5.702-5.702 5.702s-5.702-2.558-5.702-5.702v-7.602h11.404M206.506 253.763v7.602c0 3.144-2.558 5.702-5.702 5.702s-5.702-2.558-5.702-5.702v-7.602h11.404M175.794 253.763v7.602c0 3.144-2.558 5.702-5.702 5.702s-5.702-2.558-5.702-5.702v-7.602h11.404" style="" fill="#41479b" data-original="#41479b"></path></g></svg>