<svg xmlns="http://www.w3.org/2000/svg" version="1.1" xmlns:xlink="http://www.w3.org/1999/xlink" width="512" height="512" x="0" y="0" viewBox="0 0 512 512" style="enable-background:new 0 0 512 512" xml:space="preserve" class=""><g><path d="M170.667 423.721H8.828A8.829 8.829 0 0 1 0 414.893V97.1a8.829 8.829 0 0 1 8.828-8.828h161.839v335.449z" style="" fill="#73af00" data-original="#73af00" class=""></path><path d="M170.67 88.277h170.67v335.45H170.67z" style="" fill="#ffe15a" data-original="#ffe15a" class=""></path><path d="M503.172 423.721H341.333V88.273h161.839A8.829 8.829 0 0 1 512 97.101v317.793a8.827 8.827 0 0 1-8.828 8.827z" style="" fill="#ff4b55" data-original="#ff4b55" class=""></path><path d="m258.04 205.777 11.693 35.062 36.959.287c2.067.017 2.924 2.654 1.261 3.881l-29.732 21.955 11.148 35.239c.623 1.971-1.62 3.601-3.302 2.399L256 283.107l-30.069 21.492c-1.682 1.202-3.925-.428-3.302-2.399l11.148-35.239-29.732-21.955c-1.663-1.228-.806-3.865 1.261-3.881l36.959-.287 11.693-35.062c.655-1.96 3.429-1.96 4.082.001z" style="" fill="#73af00" data-original="#73af00" class=""></path></g></svg>