<svg xmlns="http://www.w3.org/2000/svg" version="1.1" xmlns:xlink="http://www.w3.org/1999/xlink" width="512" height="512" x="0" y="0" viewBox="0 0 512.001 512.001" style="enable-background:new 0 0 512 512" xml:space="preserve" class=""><g><path d="M503.172 423.725H8.828A8.829 8.829 0 0 1 0 414.897V97.104a8.829 8.829 0 0 1 8.828-8.828h494.345a8.829 8.829 0 0 1 8.828 8.828v317.793a8.83 8.83 0 0 1-8.829 8.828z" style="" fill="#ff4b55" data-original="#ff4b55" class=""></path><path d="M353.103 220.691H291.31v-61.793a8.829 8.829 0 0 0-8.828-8.828h-52.966a8.829 8.829 0 0 0-8.828 8.828v61.793h-61.793a8.829 8.829 0 0 0-8.828 8.828v52.966a8.829 8.829 0 0 0 8.828 8.828h61.793v61.793a8.829 8.829 0 0 0 8.828 8.828h52.966a8.829 8.829 0 0 0 8.828-8.828v-61.795h61.793a8.829 8.829 0 0 0 8.828-8.828v-52.966c0-4.874-3.953-8.826-8.828-8.826z" style="" fill="#f5f5f5" data-original="#f5f5f5" class=""></path></g></svg>